<svg width="139" height="40" viewBox="0 0 139 40" fill="none" xmlns="http://www.w3.org/2000/svg">
<g clip-path="url(#clip0_446_1235)">
<path fill-rule="evenodd" clip-rule="evenodd" d="M17.8702 33.5259C17.8699 33.5255 17.8696 33.525 17.8693 33.5246L17.8817 33.5308C17.8782 33.5295 17.8744 33.5279 17.8702 33.5259ZM18.487 34.234C18.2639 34.0126 18.0423 33.7926 17.8702 33.5259C17.8593 33.5208 17.846 33.5131 17.8308 33.5033L17.8757 33.5183C18.5642 33.6423 19.1596 33.9835 19.7178 34.3742C20.9025 35.2053 21.4359 36.3094 21.0018 37.7608C21.3236 37.7254 21.6271 37.6169 21.9311 37.5082C22.2658 37.3886 22.601 37.2687 22.9618 37.246C22.9807 37.215 22.9996 37.1846 23.0183 37.1543C23.0664 37.077 23.1135 37.001 23.1576 36.9219C23.2399 36.8876 23.3239 36.8556 23.4081 36.8235C23.5955 36.752 23.7835 36.6804 23.9539 36.5824C28.0848 34.1758 30.6899 30.6094 31.7939 25.9761C33.2763 19.7426 31.9552 14.1603 27.7313 9.30995C25.486 6.7297 22.7196 4.85654 19.6432 3.39275C17.8941 2.56161 16.2194 2.5182 14.4455 3.36794C12.318 4.39136 10.3084 5.57604 8.51588 7.11426C3.3988 11.518 0.961215 17.0445 1.79855 23.8114C2.46222 29.1704 4.98665 33.4687 9.64473 36.3529C12.0141 37.8229 14.6502 38.4618 17.4351 38.3749C19.3517 38.3191 20.1518 36.6692 19.1594 35.0256C18.9751 34.7185 18.7302 34.4754 18.487 34.234ZM3.98826 25.3868C2.12131 20.9086 3.47346 15.4441 7.21357 12.3615L27.6136 13.1368C32.2841 17.8011 31.8065 25.8085 26.584 29.8278C24.7977 31.2047 22.6826 31.825 20.4497 32.0235C19.7923 32.0855 19.1658 31.9552 18.6138 31.5707C17.5346 32.1351 16.4367 31.9925 15.3389 31.6327C14.2596 32.2468 13.1246 32.0607 12.0019 31.8126C8.2742 30.9938 5.48307 28.9842 3.98826 25.3868Z" fill="#CE8525"/>
<path d="M15.3391 31.6267C14.2537 32.2407 13.1248 32.0546 12.0022 31.8065C8.27448 30.9878 5.48956 28.972 3.98855 25.3807C2.12779 20.9087 3.47374 15.4381 7.21385 12.3555C10.3027 9.81243 13.9002 8.87585 17.845 9.06193C21.5975 9.2356 24.9158 10.4327 27.6139 13.1246C32.2844 17.7889 31.8006 25.8025 26.5843 29.8155C24.7918 31.1925 22.6829 31.8189 20.45 32.0112C19.7926 32.067 19.1661 31.9368 18.6141 31.5584C18.1179 30.8886 18.4714 30.2931 18.8126 29.7225C19.3026 28.8976 19.7491 28.0602 19.929 27.105C20.2577 25.3807 19.501 24.2705 17.7705 23.979C17.2557 23.8921 16.7347 23.8921 16.2199 23.9852C14.4708 24.3015 13.7389 25.3683 14.0738 27.1112C14.2661 28.1284 14.7499 29.0216 15.2771 29.8962C15.6121 30.4544 15.8105 31.0312 15.3391 31.6205V31.6267Z" fill="#F2B430"/>
<path d="M17.826 10.9598C20.6295 11.0404 23.8176 11.9087 26.4661 14.3401C29.3068 16.9514 29.9829 21.6839 27.9857 24.9712C27.0491 26.5095 25.7652 27.5825 24.1401 28.2896C23.7184 28.4757 23.2966 28.5067 22.912 28.1903C22.5585 27.905 22.5337 27.5329 22.6081 27.1173C23.1477 24.1711 21.746 21.963 18.837 21.2931C17.1127 20.8962 15.4008 20.9768 13.7881 21.7769C12.0018 22.6577 11.059 24.5122 11.3071 26.5405C11.332 26.7265 11.3692 26.9126 11.394 27.0925C11.5614 28.1469 10.904 28.6803 9.89297 28.2896C7.9888 27.5453 6.60564 26.2117 5.71248 24.3882C3.85172 20.5861 5.04881 15.9838 8.52222 13.509C11.0156 11.7289 13.6331 10.9536 17.8322 10.9598H17.826Z" fill="#F8CE80"/>
<path fill-rule="evenodd" clip-rule="evenodd" d="M32.8112 14.4829C32.1227 12.3492 30.9256 10.4698 29.6665 8.63389H29.6603L29.6975 8.62148L29.5487 8.49743C29.4828 8.42061 29.4146 8.34622 29.3465 8.27211C29.2608 8.17867 29.1755 8.08568 29.0959 7.98883C26.5094 4.81934 23.3834 2.35074 19.6557 0.626446C17.8756 -0.198488 16.1699 -0.217096 14.3835 0.601636C11.6172 1.86695 9.14862 3.56644 6.98394 5.6939C2.84687 9.76275 0.266621 14.5759 0.01852 20.4745C-0.173758 25.1512 1.01712 29.4309 3.77724 33.2455C4.82547 34.6906 6.1404 35.8567 7.51736 36.967C7.57008 37.0011 7.62125 37.0352 7.67242 37.0693C7.72359 37.1034 7.77476 37.1375 7.82748 37.1716C11.1458 39.3487 14.7495 40.3783 18.7377 39.8635C19.1034 39.6735 19.457 39.4703 19.7789 39.2327C19.4629 39.4729 19.113 39.678 18.7441 39.8697C19.997 39.8511 21.1879 39.5099 22.354 39.082C22.3562 39.0785 22.3584 39.075 22.3606 39.0714C25.0159 38.1777 27.2939 36.6782 29.0959 34.5604C34.1633 28.5936 35.1744 21.8328 32.8112 14.4829ZM23.1475 36.934C23.1496 36.9305 23.1518 36.927 23.1539 36.9235C23.2374 36.8886 23.3227 36.8561 23.4081 36.8235C23.5956 36.7521 23.7836 36.6804 23.954 36.5824C28.0849 34.1696 30.6961 30.6094 31.794 25.9761C33.2764 19.7426 31.9553 14.1603 27.7313 9.30996C25.486 6.73592 22.7197 4.85656 19.6433 3.39277C17.8942 2.56163 16.2195 2.51201 14.4456 3.36796C12.3181 4.39137 10.3085 5.56985 8.51596 7.11427C3.39269 11.5181 0.955099 17.0383 1.79244 23.8114C2.45611 29.1704 4.98053 33.4688 9.63862 36.3529C12.0142 37.8229 14.644 38.4556 17.429 38.3749C19.3518 38.3191 20.1457 36.6692 19.1533 35.0256C18.9742 34.7303 18.628 34.3888 18.3388 34.1035C18.0571 33.8256 17.8295 33.6011 17.8631 33.5246C17.9748 33.2765 19.1471 33.9898 19.7053 34.3805C20.89 35.2117 21.5 36.5 20.9892 37.7671C20.989 37.7677 20.9887 37.7683 20.9884 37.7689C21.4002 37.7148 21.8552 37.5026 22.308 37.2914C22.5925 37.1587 22.8761 37.0264 23.1475 36.934Z" fill="#F0B230"/>
<path d="M52.5426 26.7639C52.0588 26.7639 51.6866 26.6274 51.4323 26.3607C51.1718 26.094 51.0478 25.7218 51.0478 25.2505V17.6524H48.5172C48.1202 17.6524 47.8163 17.5469 47.6054 17.3298C47.3945 17.1128 47.2891 16.815 47.2891 16.4243C47.2891 16.0335 47.3945 15.742 47.6054 15.5373C47.8163 15.3326 48.1202 15.2334 48.5172 15.2334H56.5494C56.9588 15.2334 57.2627 15.3388 57.4674 15.5373C57.6721 15.742 57.7713 16.0397 57.7713 16.4243C57.7713 16.8088 57.6659 17.1252 57.4674 17.3361C57.2627 17.5469 56.9588 17.6524 56.5494 17.6524H54.0188V25.2505C54.0188 25.7218 53.8947 26.094 53.6466 26.3607C53.3985 26.6274 53.0326 26.7639 52.5488 26.7639H52.5426Z" fill="#543511"/>
<path d="M58.7509 26.7638C58.2795 26.7638 57.9136 26.6397 57.6655 26.3854C57.4112 26.1311 57.2871 25.7776 57.2871 25.3124V19.9596C57.2871 19.4944 57.4112 19.1409 57.6469 18.8866C57.8888 18.6323 58.2361 18.5082 58.6889 18.5082C59.1417 18.5082 59.4704 18.6323 59.7123 18.8866C59.9542 19.1409 60.072 19.4944 60.072 19.9596V20.6233H59.9108C60.0162 19.9782 60.2953 19.4634 60.7419 19.0851C61.1885 18.7005 61.7467 18.502 62.4104 18.4834C62.7205 18.471 62.9562 18.5516 63.1113 18.7253C63.2663 18.899 63.3532 19.2091 63.3594 19.6619C63.3594 20.0465 63.2787 20.3504 63.1175 20.5737C62.9562 20.797 62.6523 20.9334 62.2119 20.983L61.8273 21.014C61.2691 21.0699 60.8536 21.2249 60.5868 21.4916C60.3201 21.7583 60.1837 22.1429 60.1837 22.6577V25.3186C60.1837 25.7838 60.0596 26.1373 59.8239 26.3916C59.582 26.6459 59.2223 26.77 58.7509 26.77V26.7638Z" fill="#543511"/>
<path d="M65.7171 17.3733C65.2023 17.3733 64.8054 17.2555 64.5263 17.0198C64.2472 16.7841 64.1045 16.4429 64.1045 16.0025C64.1045 15.5622 64.2409 15.2086 64.5263 14.9729C64.8054 14.7372 65.2023 14.6194 65.7171 14.6194C66.232 14.6194 66.6165 14.7372 66.8956 14.9729C67.1747 15.2086 67.3174 15.556 67.3174 16.0025C67.3174 16.4491 67.1747 16.7841 66.8956 17.0198C66.6165 17.2555 66.2258 17.3733 65.7171 17.3733ZM65.7171 26.7267C65.2458 26.7267 64.886 26.5964 64.6441 26.3297C64.4022 26.0692 64.2844 25.6847 64.2844 25.1761V20.0652C64.2844 19.5628 64.4084 19.1782 64.6441 18.9115C64.886 18.651 65.2458 18.5146 65.7171 18.5146C66.1885 18.5146 66.5235 18.6448 66.7716 18.9115C67.0197 19.1782 67.1499 19.5566 67.1499 20.0652V25.1761C67.1499 25.6847 67.0259 26.063 66.7778 26.3297C66.5297 26.5964 66.1761 26.7267 65.7109 26.7267H65.7171Z" fill="#543511"/>
<path d="M70.2511 29.6666C69.7798 29.6666 69.42 29.5426 69.1781 29.2883C68.9362 29.034 68.8184 28.6804 68.8184 28.2152V19.9597C68.8184 19.4945 68.9424 19.141 69.1781 18.8867C69.42 18.6324 69.7673 18.5083 70.2201 18.5083C70.6729 18.5083 71.0203 18.6324 71.2684 18.8867C71.5165 19.141 71.6405 19.4945 71.6405 19.9597V20.8963L71.4606 20.1086C71.6095 19.6248 71.9258 19.234 72.4096 18.9301C72.8934 18.6262 73.433 18.4773 74.0409 18.4773C74.717 18.4773 75.3186 18.6448 75.8458 18.9859C76.373 19.327 76.7824 19.7984 77.0739 20.4125C77.3654 21.0265 77.5081 21.7646 77.5081 22.6392C77.5081 23.5137 77.3592 24.227 77.0677 24.8473C76.77 25.4737 76.3668 25.9513 75.852 26.2925C75.3372 26.6336 74.7356 26.8011 74.0471 26.8011C73.4578 26.8011 72.9244 26.6584 72.453 26.3731C71.9816 26.0878 71.6591 25.7218 71.4854 25.269H71.6963V28.2214C71.6963 28.6866 71.5723 29.0402 71.318 29.2945C71.0637 29.5488 70.7101 29.6728 70.2635 29.6728L70.2511 29.6666ZM73.1353 24.6488C73.4268 24.6488 73.6811 24.5806 73.8982 24.4503C74.1153 24.3201 74.2952 24.0968 74.4254 23.799C74.5557 23.5013 74.6177 23.1106 74.6177 22.6392C74.6177 21.9197 74.4751 21.3987 74.1959 21.0824C73.9168 20.766 73.5633 20.6048 73.1291 20.6048C72.8252 20.6048 72.5647 20.673 72.3414 20.8156C72.1181 20.9583 71.9382 21.1754 71.8204 21.4669C71.6963 21.7646 71.6343 22.1554 71.6343 22.633C71.6343 23.3401 71.7708 23.8549 72.0561 24.1712C72.3352 24.4875 72.6949 24.6488 73.1353 24.6488Z" fill="#543511"/>
<path d="M80.2492 29.6666C79.7778 29.6666 79.4181 29.5426 79.1762 29.2883C78.9343 29.034 78.8164 28.6804 78.8164 28.2152V19.9597C78.8164 19.4945 78.9405 19.141 79.1762 18.8867C79.4181 18.6324 79.7654 18.5083 80.2182 18.5083C80.671 18.5083 81.0183 18.6324 81.2664 18.8867C81.5145 19.141 81.6385 19.4945 81.6385 19.9597V20.8963L81.4587 20.1086C81.6075 19.6248 81.9239 19.234 82.4077 18.9301C82.8915 18.6262 83.4311 18.4773 84.0389 18.4773C84.715 18.4773 85.3166 18.6448 85.8438 18.9859C86.3711 19.327 86.7804 19.7984 87.072 20.4125C87.3635 21.0265 87.5061 21.7646 87.5061 22.6392C87.5061 23.5137 87.3573 24.227 87.0657 24.8473C86.768 25.4737 86.3649 25.9513 85.8501 26.2925C85.3352 26.6336 84.7336 26.8011 84.0451 26.8011C83.4559 26.8011 82.9225 26.6584 82.4511 26.3731C81.9797 26.0878 81.6572 25.7218 81.4835 25.269H81.6944V28.2214C81.6944 28.6866 81.5703 29.0402 81.316 29.2945C81.0617 29.5488 80.7082 29.6728 80.2616 29.6728L80.2492 29.6666ZM83.1334 24.6488C83.4249 24.6488 83.6792 24.5806 83.8963 24.4503C84.1133 24.3201 84.2932 24.0968 84.4235 23.799C84.5537 23.5013 84.6158 23.1106 84.6158 22.6392C84.6158 21.9197 84.4731 21.3987 84.194 21.0824C83.9149 20.766 83.5613 20.6048 83.1272 20.6048C82.8232 20.6048 82.5627 20.673 82.3394 20.8156C82.1161 20.9583 81.9363 21.1754 81.8184 21.4669C81.6944 21.7646 81.6323 22.1554 81.6323 22.633C81.6323 23.3401 81.7688 23.8549 82.0541 24.1712C82.3332 24.4875 82.693 24.6488 83.1334 24.6488Z" fill="#543511"/>
<path d="M91.5688 26.7949C90.9547 26.7949 90.4151 26.677 89.9375 26.4475C89.4661 26.218 89.094 25.9017 88.8335 25.5109C88.573 25.1202 88.4365 24.6674 88.4365 24.165C88.4365 23.582 88.5854 23.1292 88.8893 22.7942C89.187 22.4593 89.677 22.2236 90.3469 22.0748C91.0168 21.9259 91.9099 21.8577 93.014 21.8577H93.9009V23.1974H93.014C92.5922 23.1974 92.2511 23.2284 91.9844 23.2966C91.7177 23.3587 91.5192 23.4517 91.3889 23.5696C91.2587 23.6874 91.1966 23.8487 91.1966 24.0534C91.1966 24.3015 91.2835 24.5061 91.4571 24.6674C91.6308 24.8287 91.8851 24.9093 92.2325 24.9093C92.493 24.9093 92.7225 24.8535 92.9333 24.7294C93.1442 24.6054 93.3117 24.4441 93.4419 24.2394C93.5722 24.0285 93.6342 23.7866 93.6342 23.5075V21.6344C93.6342 21.2374 93.535 20.9583 93.3365 20.8032C93.138 20.6482 92.8031 20.5675 92.3317 20.5675C92.065 20.5675 91.7673 20.5986 91.4509 20.6544C91.1346 20.7164 90.7687 20.8156 90.3655 20.9707C90.074 21.0761 89.8259 21.0948 89.615 21.0203C89.4041 20.9459 89.249 20.8156 89.1498 20.642C89.0444 20.4621 88.9947 20.2698 88.9947 20.0527C88.9947 19.8356 89.063 19.631 89.1994 19.4263C89.3359 19.2216 89.5406 19.0727 89.8197 18.9735C90.3345 18.7936 90.8121 18.6634 91.2525 18.5889C91.6928 18.5145 92.0898 18.4773 92.4433 18.4773C93.3241 18.4773 94.056 18.6075 94.6266 18.8619C95.2035 19.1224 95.6314 19.5069 95.9168 20.0341C96.2021 20.5613 96.3447 21.225 96.3447 22.0437V25.3187C96.3447 25.7839 96.2269 26.1374 95.9974 26.3917C95.7679 26.646 95.4392 26.7701 95.0236 26.7701C94.5832 26.7701 94.2483 26.646 94.0188 26.3917C93.7893 26.1374 93.6714 25.7839 93.6714 25.3187V24.8845L93.7707 25.1078C93.7149 25.4427 93.5908 25.7342 93.3985 25.9885C93.2063 26.2428 92.952 26.4413 92.6418 26.584C92.3317 26.7266 91.9782 26.8011 91.575 26.8011L91.5688 26.7949Z" fill="#543511"/>
<path d="M103.112 26.7639C102.727 26.7639 102.405 26.677 102.144 26.4971C101.884 26.3173 101.673 26.0444 101.499 25.666L97.5977 17.0693C97.4178 16.6848 97.3558 16.3374 97.4303 16.0397C97.4985 15.742 97.6535 15.5001 97.8892 15.3326C98.1249 15.159 98.4227 15.0721 98.7762 15.0721C99.2166 15.0721 99.5515 15.1714 99.7748 15.3698C99.9981 15.5683 100.19 15.8598 100.339 16.232L103.627 23.8425H102.721L106.008 16.2134C106.17 15.835 106.362 15.5497 106.591 15.3574C106.815 15.1652 107.137 15.0659 107.559 15.0659C107.881 15.0659 108.154 15.1528 108.371 15.3326C108.589 15.5125 108.731 15.742 108.793 16.0335C108.855 16.325 108.793 16.6662 108.626 17.0631L104.724 25.6598C104.551 26.0382 104.34 26.3111 104.098 26.4909C103.85 26.6708 103.521 26.7577 103.112 26.7577V26.7639Z" fill="#543511"/>
<path d="M112.081 17.3733C111.566 17.3733 111.169 17.2555 110.89 17.0198C110.611 16.7841 110.468 16.4429 110.468 16.0025C110.468 15.5622 110.605 15.2086 110.89 14.9729C111.169 14.7372 111.566 14.6194 112.081 14.6194C112.596 14.6194 112.98 14.7372 113.259 14.9729C113.539 15.2086 113.681 15.556 113.681 16.0025C113.681 16.4491 113.539 16.7841 113.259 17.0198C112.98 17.2555 112.59 17.3733 112.081 17.3733ZM112.081 26.7267C111.61 26.7267 111.25 26.5964 111.008 26.3297C110.766 26.0692 110.648 25.6847 110.648 25.1761V20.0652C110.648 19.5628 110.772 19.1782 111.008 18.9115C111.25 18.651 111.61 18.5146 112.081 18.5146C112.552 18.5146 112.887 18.6448 113.135 18.9115C113.383 19.1782 113.514 19.5566 113.514 20.0652V25.1761C113.514 25.6847 113.39 26.063 113.142 26.3297C112.893 26.5964 112.54 26.7267 112.075 26.7267H112.081Z" fill="#543511"/>
<path d="M118.352 26.7949C117.868 26.7949 117.384 26.7576 116.894 26.6832C116.404 26.6088 115.957 26.4847 115.548 26.3111C115.288 26.2056 115.108 26.0568 114.99 25.8707C114.878 25.6846 114.822 25.4861 114.829 25.2814C114.835 25.0768 114.891 24.8907 115.008 24.7232C115.12 24.5558 115.269 24.4379 115.461 24.3697C115.647 24.3015 115.864 24.3077 116.1 24.3945C116.553 24.5682 116.956 24.686 117.316 24.748C117.676 24.8101 118.023 24.8473 118.358 24.8473C118.755 24.8473 119.04 24.7915 119.214 24.6798C119.387 24.5682 119.474 24.4193 119.474 24.2394C119.474 24.0782 119.418 23.9541 119.307 23.8673C119.195 23.7804 119.034 23.7246 118.829 23.6874L117.037 23.4145C116.367 23.2966 115.852 23.0485 115.486 22.6702C115.12 22.2918 114.94 21.8018 114.94 21.1878C114.94 20.642 115.101 20.1644 115.418 19.7612C115.734 19.3581 116.168 19.0417 116.727 18.8184C117.279 18.5951 117.917 18.4773 118.637 18.4773C119.121 18.4773 119.561 18.5145 119.958 18.5889C120.355 18.6634 120.746 18.7874 121.137 18.9611C121.36 19.0665 121.521 19.2154 121.62 19.3953C121.72 19.5751 121.757 19.7674 121.732 19.9659C121.707 20.1644 121.639 20.3505 121.521 20.5117C121.403 20.6792 121.248 20.797 121.056 20.8591C120.864 20.9211 120.647 20.9087 120.411 20.8094C120.057 20.673 119.741 20.5675 119.462 20.5055C119.183 20.4435 118.922 20.4063 118.687 20.4063C118.234 20.4063 117.917 20.4683 117.744 20.5861C117.564 20.704 117.477 20.8591 117.477 21.0513C117.477 21.1816 117.527 21.2932 117.632 21.3925C117.731 21.4917 117.88 21.5537 118.073 21.5848L119.865 21.8763C120.566 21.9941 121.099 22.2298 121.459 22.5834C121.825 22.9369 122.005 23.4207 122.005 24.0347C122.005 24.9031 121.67 25.5854 121.006 26.0692C120.336 26.553 119.456 26.7949 118.364 26.7949H118.352Z" fill="#543511"/>
<path d="M127.19 26.795C126.309 26.795 125.54 26.6275 124.883 26.2926C124.225 25.9576 123.716 25.48 123.351 24.8474C122.985 24.2209 122.805 23.4766 122.805 22.6269C122.805 21.9818 122.91 21.405 123.109 20.8964C123.313 20.3878 123.611 19.9474 123.996 19.5814C124.38 19.2155 124.845 18.9364 125.385 18.7503C125.925 18.5642 126.526 18.4712 127.19 18.4712C128.071 18.4712 128.84 18.6387 129.497 18.9736C130.155 19.3085 130.663 19.7861 131.023 20.4064C131.383 21.0328 131.563 21.7709 131.563 22.6331C131.563 23.2781 131.457 23.855 131.259 24.3574C131.054 24.866 130.756 25.3002 130.372 25.6723C129.987 26.0445 129.522 26.3236 128.982 26.5096C128.443 26.6957 127.847 26.7888 127.19 26.7888V26.795ZM127.19 24.6489C127.481 24.6489 127.736 24.5807 127.953 24.4504C128.17 24.3202 128.35 24.0969 128.48 23.7991C128.61 23.5014 128.672 23.1107 128.672 22.6393C128.672 21.9198 128.53 21.3988 128.25 21.0824C127.971 20.7661 127.618 20.6049 127.184 20.6049C126.892 20.6049 126.638 20.6731 126.408 20.8157C126.185 20.9584 126.005 21.1755 125.875 21.467C125.745 21.7647 125.683 22.1555 125.683 22.6331C125.683 23.3402 125.819 23.855 126.104 24.1713C126.384 24.4876 126.743 24.6489 127.184 24.6489H127.19Z" fill="#543511"/>
<path d="M134.348 26.7638C133.876 26.7638 133.51 26.6397 133.262 26.3854C133.008 26.1311 132.884 25.7776 132.884 25.3124V19.9596C132.884 19.4944 133.008 19.1409 133.244 18.8866C133.485 18.6323 133.833 18.5082 134.286 18.5082C134.738 18.5082 135.067 18.6323 135.309 18.8866C135.551 19.1409 135.669 19.4944 135.669 19.9596V20.6233H135.507C135.613 19.9782 135.892 19.4634 136.339 19.0851C136.785 18.7005 137.343 18.502 138.007 18.4834C138.317 18.471 138.553 18.5516 138.708 18.7253C138.863 18.899 138.95 19.2091 138.956 19.6619C138.956 20.0465 138.875 20.3504 138.714 20.5737C138.553 20.797 138.249 20.9334 137.809 20.983L137.424 21.014C136.866 21.0699 136.45 21.2249 136.184 21.4916C135.917 21.7583 135.78 22.1429 135.78 22.6577V25.3186C135.78 25.7838 135.656 26.1373 135.421 26.3916C135.179 26.6459 134.819 26.77 134.348 26.77V26.7638Z" fill="#543511"/>
</g>
<defs>
<clipPath id="clip0_446_1235">
<rect width="138.961" height="40" fill="white"/>
</clipPath>
</defs>
</svg>
