<?xml version="1.0" encoding="UTF-8"?><svg xmlns="http://www.w3.org/2000/svg" viewBox="0 0 224.04 64.49"><defs><style>.d{fill:#f8ce80;}.e{fill:#f2b430;}.f{fill:#f0b230;}.g{fill:#ce8525;}.h{fill:#403e0a;}.i{fill:#543511;}</style></defs><g id="a"/><g id="b"><g id="c"><g><path class="g" d="M28.81,54.05c.58,.9,1.51,1.47,2.08,2.42,1.6,2.65,.31,5.31-2.78,5.4-4.49,.14-8.74-.89-12.56-3.26-7.51-4.65-11.58-11.58-12.65-20.22-1.35-10.91,2.58-19.82,10.83-26.92,2.89-2.48,6.13-4.39,9.56-6.04,2.86-1.37,5.56-1.3,8.38,.04,4.96,2.36,9.42,5.38,13.04,9.54,6.81,7.82,8.94,16.82,6.55,26.87-1.78,7.47-5.98,13.22-12.64,17.1-.4,.23-.86,.37-1.29,.55,.08-2.31-1.1-4.66-2.93-6.27-.56-.49,.04-.65,.44-.7,1.74-.23,3.84-.91,5.42-1.64,5.5-2.54,8.2-6.29,9.63-12.22,1.46-6.07,.62-11.52-2.92-16.54-2.87-4.07-6.77-6.85-11.03-9.34-2.78-1.62-4.97-1.54-8.24-1.62-3.4-.08-5.89,.4-8.77,2.03-5.07,2.87-9.86,5.81-12.83,10.88-3.7,6.32-3.36,12.76,.06,19.16,3.38,6.35,8.21,8.82,15.31,9.17,2.17,.11,3.88-.03,5.99,.59,.2,.07,1.17,.96,1.37,1.03h0Z"/><path class="h" d="M47.89,13.9l-.24-.2,.24,.2Z"/><path class="g" d="M28.22,53.85c-2.11-.62-4.28-.69-6.45-.8-7.11-.35-13.77-3.33-17.16-9.69-2.02-6.71-2.21-13.94,1.49-20.26,2.97-5.07,7.17-8.88,12.24-11.75,2.88-1.63,5.93-2.82,9.33-2.74,3.27,.08,6.23,1.22,9,2.84,4.27,2.49,8.77,6.6,11.64,10.67,3.54,5.02,4.15,10.51,2.69,16.58-1.42,5.94-4.98,10.13-10.49,12.67-1.58,.73-3.25,1.25-4.99,1.48-.4,.05-1,.21-.44,.7,1.83,1.61,2.34,3.67,2.26,5.97-.1,.18-.21,.35-.32,.53-1.11,.07-2.07,.71-3.16,.83,.7-2.34-.16-4.12-2.07-5.46-.9-.63-1.86-1.18-2.97-1.38h0l-.6-.2ZM11.63,19.93c-6.03,4.97-8.21,13.78-5.2,21,2.41,5.8,6.91,9.04,12.92,10.36,1.81,.4,3.64,.7,5.38-.29,1.77,.58,3.54,.81,5.28-.1,.89,.62,1.9,.83,2.96,.73,3.6-.32,7.01-1.32,9.89-3.54,8.42-6.48,9.19-19.39,1.66-26.91"/><path class="e" d="M24.73,50.99c-1.75,.99-3.57,.69-5.38,.29-6.01-1.32-10.5-4.57-12.92-10.36-3-7.21-.83-16.03,5.2-21,4.98-4.1,10.78-5.61,17.14-5.31,6.05,.28,11.4,2.21,15.75,6.55,7.53,7.52,6.75,20.44-1.66,26.91-2.89,2.22-6.29,3.23-9.89,3.54-1.06,.09-2.07-.12-2.96-.73-.8-1.08-.23-2.04,.32-2.96,.79-1.33,1.51-2.68,1.8-4.22,.53-2.78-.69-4.57-3.48-5.04-.83-.14-1.67-.14-2.5,.01-2.82,.51-4,2.23-3.46,5.04,.31,1.64,1.09,3.08,1.94,4.49,.54,.9,.86,1.83,.1,2.78Z"/><path class="d" d="M28.74,17.67c4.52,.13,9.66,1.53,13.93,5.45,4.58,4.21,5.67,11.84,2.45,17.14-1.51,2.48-3.58,4.21-6.2,5.35-.68,.3-1.36,.35-1.98-.16-.57-.46-.61-1.06-.49-1.73,.87-4.75-1.39-8.31-6.08-9.39-2.78-.64-5.54-.51-8.14,.78-2.88,1.42-4.4,4.41-4,7.68,.04,.3,.1,.6,.14,.89,.27,1.7-.79,2.56-2.42,1.93-3.07-1.2-5.3-3.35-6.74-6.29-3-6.13-1.07-13.55,4.53-17.54,4.02-2.87,8.24-4.12,15.01-4.11Z"/><path class="f" d="M37.33,59.54c.07,1.11-.7,2.53-1.29,3.47-1.88,.69-3.8,1.24-5.82,1.27,1.52-.79,2.84-1.72,3.56-3.38,1.1-.12,2.4-.97,3.56-1.36Z"/><path class="f" d="M47.83,13.92c2.03,2.96,3.96,5.99,5.07,9.43,3.81,11.85,2.18,22.75-5.99,32.37-2.91,3.42-6.59,5.84-10.88,7.28,.32-.98,1.05-1.83,.98-2.94,.11-.18,.21-.35,.32-.53,.43-.18,.89-.32,1.29-.55,6.66-3.89,10.87-9.63,12.64-17.1,2.39-10.05,.26-19.05-6.55-26.87-3.62-4.15-8.08-7.18-13.04-9.54-2.82-1.34-5.52-1.42-8.38-.04-3.43,1.65-6.67,3.55-9.56,6.04C5.47,18.57,1.54,27.47,2.89,38.39c1.07,8.64,5.14,15.57,12.65,20.22,3.83,2.37,8.07,3.39,12.56,3.26,3.1-.09,4.38-2.75,2.78-5.4-.57-.94-2.19-2.17-2.08-2.42,.18-.4,2.07,.75,2.97,1.38,1.91,1.34,2.76,3.12,2.07,5.46-.72,1.66-2.11,2.59-3.63,3.38-6.43,.83-12.24-.83-17.59-4.34-.17-.11-.33-.22-.5-.33-2.22-1.79-4.34-3.67-6.03-6C1.64,47.45-.28,40.55,.03,33.01,.43,23.5,4.59,15.74,11.26,9.18c3.49-3.43,7.47-6.17,11.93-8.21,2.88-1.32,5.63-1.29,8.5,.04,6.01,2.78,11.05,6.76,15.22,11.87,.23,.28,.49,.54,.73,.82l.24,.2-.06,.02Z"/></g><g><path class="i" d="M84.71,43.15c-.78,0-1.38-.22-1.79-.65-.42-.43-.62-1.03-.62-1.79v-12.25h-4.08c-.64,0-1.13-.17-1.47-.52s-.51-.83-.51-1.46,.17-1.1,.51-1.43,.83-.49,1.47-.49h12.95c.66,0,1.15,.17,1.48,.49,.33,.33,.49,.81,.49,1.43s-.17,1.13-.49,1.47c-.33,.34-.82,.51-1.48,.51h-4.08v12.25c0,.76-.2,1.36-.6,1.79-.4,.43-.99,.65-1.77,.65Z"/><path class="i" d="M94.72,43.15c-.76,0-1.35-.2-1.75-.61-.41-.41-.61-.98-.61-1.73v-8.63c0-.75,.2-1.32,.58-1.73,.39-.41,.95-.61,1.68-.61s1.26,.2,1.65,.61c.39,.41,.58,.98,.58,1.73v1.07h-.26c.17-1.04,.62-1.87,1.34-2.48,.72-.62,1.62-.94,2.69-.97,.5-.02,.88,.11,1.13,.39s.39,.78,.4,1.51c0,.62-.13,1.11-.39,1.47-.26,.36-.75,.58-1.46,.66l-.62,.05c-.9,.09-1.57,.34-2,.77s-.65,1.05-.65,1.88v4.29c0,.75-.2,1.32-.58,1.73-.39,.41-.97,.61-1.73,.61Z"/><path class="i" d="M105.95,28.01c-.83,0-1.47-.19-1.92-.57-.45-.38-.68-.93-.68-1.64s.22-1.28,.68-1.66c.45-.38,1.09-.57,1.92-.57s1.45,.19,1.9,.57c.45,.38,.68,.94,.68,1.66s-.23,1.26-.68,1.64c-.45,.38-1.08,.57-1.9,.57Zm0,15.08c-.76,0-1.34-.21-1.73-.64-.39-.42-.58-1.04-.58-1.86v-8.24c0-.81,.2-1.43,.58-1.86,.39-.42,.97-.64,1.73-.64s1.3,.21,1.7,.64,.61,1.04,.61,1.86v8.24c0,.82-.2,1.43-.6,1.86s-.97,.64-1.72,.64Z"/><path class="i" d="M113.26,47.83c-.76,0-1.34-.2-1.73-.61-.39-.41-.58-.98-.58-1.73v-13.31c0-.75,.2-1.32,.58-1.73,.39-.41,.95-.61,1.68-.61s1.29,.2,1.69,.61c.4,.41,.6,.98,.6,1.73v1.51l-.29-1.27c.24-.78,.75-1.41,1.53-1.9,.78-.49,1.65-.73,2.63-.73,1.09,0,2.06,.27,2.91,.82,.85,.55,1.51,1.31,1.98,2.3,.47,.99,.7,2.18,.7,3.59s-.24,2.56-.71,3.56c-.48,1.01-1.13,1.78-1.96,2.33-.83,.55-1.8,.82-2.91,.82-.95,0-1.81-.23-2.57-.69s-1.28-1.05-1.56-1.78h.34v4.76c0,.75-.2,1.32-.61,1.73s-.98,.61-1.7,.61Zm4.65-8.09c.47,0,.88-.11,1.23-.32s.64-.57,.85-1.05c.21-.48,.31-1.11,.31-1.87,0-1.16-.23-2-.68-2.51-.45-.51-1.02-.77-1.72-.77-.49,0-.91,.11-1.27,.34-.36,.23-.65,.58-.84,1.05-.2,.48-.3,1.11-.3,1.88,0,1.14,.22,1.97,.68,2.48,.45,.51,1.03,.77,1.74,.77Z"/><path class="i" d="M129.38,47.83c-.76,0-1.34-.2-1.73-.61-.39-.41-.58-.98-.58-1.73v-13.31c0-.75,.2-1.32,.58-1.73,.39-.41,.95-.61,1.68-.61s1.29,.2,1.69,.61c.4,.41,.6,.98,.6,1.73v1.51l-.29-1.27c.24-.78,.75-1.41,1.53-1.9,.78-.49,1.65-.73,2.63-.73,1.09,0,2.06,.27,2.91,.82,.85,.55,1.51,1.31,1.98,2.3,.47,.99,.7,2.18,.7,3.59s-.24,2.56-.71,3.56c-.48,1.01-1.13,1.78-1.96,2.33-.83,.55-1.8,.82-2.91,.82-.95,0-1.81-.23-2.57-.69s-1.28-1.05-1.56-1.78h.34v4.76c0,.75-.2,1.32-.61,1.73s-.98,.61-1.7,.61Zm4.65-8.09c.47,0,.88-.11,1.23-.32s.64-.57,.85-1.05c.21-.48,.31-1.11,.31-1.87,0-1.16-.23-2-.68-2.51-.45-.51-1.02-.77-1.72-.77-.49,0-.91,.11-1.27,.34-.36,.23-.65,.58-.84,1.05-.2,.48-.3,1.11-.3,1.88,0,1.14,.22,1.97,.68,2.48,.45,.51,1.03,.77,1.74,.77Z"/><path class="i" d="M147.63,43.2c-.99,0-1.86-.19-2.63-.56-.76-.37-1.36-.88-1.78-1.51s-.64-1.36-.64-2.17c0-.94,.24-1.67,.73-2.21,.48-.54,1.27-.92,2.35-1.16s2.52-.35,4.3-.35h1.43v2.16h-1.43c-.68,0-1.23,.05-1.66,.16-.43,.1-.75,.25-.96,.44s-.31,.45-.31,.78c0,.4,.14,.73,.42,.99,.28,.26,.69,.39,1.25,.39,.42,0,.79-.09,1.13-.29s.61-.46,.82-.79c.21-.34,.31-.73,.31-1.18v-3.02c0-.64-.16-1.09-.48-1.34-.32-.25-.86-.38-1.62-.38-.43,0-.91,.05-1.42,.14-.51,.1-1.1,.26-1.75,.51-.47,.17-.87,.2-1.21,.08s-.59-.33-.75-.61c-.17-.29-.25-.6-.25-.95s.11-.68,.33-1.01c.22-.33,.55-.57,1-.73,.83-.29,1.6-.5,2.31-.62,.71-.12,1.35-.18,1.92-.18,1.42,0,2.6,.21,3.52,.62,.93,.42,1.62,1.04,2.08,1.89s.69,1.92,.69,3.24v5.28c0,.75-.19,1.32-.56,1.73-.37,.41-.9,.61-1.57,.61-.71,0-1.25-.2-1.62-.61-.37-.41-.56-.98-.56-1.73v-.7l.16,.36c-.09,.54-.29,1.01-.6,1.42-.31,.41-.72,.73-1.22,.96s-1.07,.35-1.72,.35Z"/><path class="i" d="M166.24,43.15c-.62,0-1.14-.14-1.56-.43s-.76-.73-1.04-1.34l-6.29-13.86c-.29-.62-.39-1.18-.27-1.66,.11-.48,.36-.87,.74-1.14,.38-.28,.86-.42,1.43-.42,.71,0,1.25,.16,1.61,.48,.36,.32,.67,.79,.91,1.39l5.3,12.27h-1.46l5.3-12.3c.26-.61,.57-1.07,.94-1.38,.36-.31,.88-.47,1.56-.47,.52,0,.96,.14,1.31,.43s.58,.66,.68,1.13c.1,.47,0,1.02-.27,1.66l-6.29,13.86c-.28,.61-.62,1.05-1.01,1.34-.4,.29-.93,.43-1.59,.43Z"/><path class="i" d="M180.7,28.01c-.83,0-1.47-.19-1.92-.57-.45-.38-.68-.93-.68-1.64s.22-1.28,.68-1.66c.45-.38,1.09-.57,1.92-.57s1.45,.19,1.9,.57c.45,.38,.68,.94,.68,1.66s-.23,1.26-.68,1.64c-.45,.38-1.08,.57-1.9,.57Zm0,15.08c-.76,0-1.34-.21-1.73-.64-.39-.42-.58-1.04-.58-1.86v-8.24c0-.81,.2-1.43,.58-1.86,.39-.42,.97-.64,1.73-.64s1.3,.21,1.7,.64,.61,1.04,.61,1.86v8.24c0,.82-.2,1.43-.6,1.86s-.97,.64-1.72,.64Z"/><path class="i" d="M190.81,43.2c-.78,0-1.56-.06-2.35-.18-.79-.12-1.51-.32-2.17-.6-.42-.17-.71-.41-.9-.71-.18-.3-.27-.62-.26-.95s.1-.63,.29-.9c.18-.27,.42-.46,.73-.57,.3-.11,.65-.1,1.03,.04,.73,.28,1.38,.47,1.96,.57,.58,.1,1.14,.16,1.68,.16,.64,0,1.1-.09,1.38-.27,.28-.18,.42-.42,.42-.71,0-.26-.09-.46-.27-.6s-.44-.23-.77-.29l-2.89-.44c-1.08-.19-1.91-.59-2.5-1.2-.59-.61-.88-1.4-.88-2.39,0-.88,.26-1.65,.77-2.3,.51-.65,1.21-1.16,2.11-1.52,.89-.36,1.92-.55,3.08-.55,.78,0,1.49,.06,2.13,.18s1.27,.32,1.9,.6c.36,.17,.62,.41,.78,.7,.16,.29,.22,.6,.18,.92-.04,.32-.15,.62-.34,.88-.19,.27-.44,.46-.75,.56-.31,.1-.66,.08-1.04-.08-.57-.22-1.08-.39-1.53-.49-.45-.1-.87-.16-1.25-.16-.73,0-1.24,.1-1.52,.29-.29,.19-.43,.44-.43,.75,0,.21,.08,.39,.25,.55,.16,.16,.4,.26,.71,.31l2.89,.47c1.13,.19,1.99,.57,2.57,1.14,.59,.57,.88,1.35,.88,2.34,0,1.4-.54,2.5-1.61,3.28-1.08,.78-2.5,1.17-4.26,1.17Z"/><path class="i" d="M205.06,43.2c-1.42,0-2.66-.27-3.72-.81-1.06-.54-1.88-1.31-2.47-2.33-.59-1.01-.88-2.21-.88-3.58,0-1.04,.17-1.97,.49-2.79,.33-.82,.81-1.53,1.43-2.12,.62-.59,1.37-1.04,2.24-1.34,.87-.3,1.84-.45,2.91-.45,1.42,0,2.66,.27,3.72,.81,1.06,.54,1.88,1.31,2.46,2.31,.58,1.01,.87,2.2,.87,3.59,0,1.04-.17,1.97-.49,2.78-.33,.82-.81,1.52-1.43,2.12s-1.37,1.05-2.24,1.35c-.87,.3-1.83,.45-2.89,.45Zm0-3.46c.47,0,.88-.11,1.23-.32s.64-.57,.85-1.05c.21-.48,.31-1.11,.31-1.87,0-1.16-.23-2-.68-2.51-.45-.51-1.02-.77-1.72-.77-.47,0-.88,.11-1.25,.34-.36,.23-.65,.58-.86,1.05-.21,.48-.31,1.11-.31,1.88,0,1.14,.22,1.97,.68,2.48,.45,.51,1.03,.77,1.74,.77Z"/><path class="i" d="M216.6,43.15c-.76,0-1.35-.2-1.75-.61-.41-.41-.61-.98-.61-1.73v-8.63c0-.75,.2-1.32,.58-1.73,.39-.41,.95-.61,1.68-.61s1.26,.2,1.65,.61c.39,.41,.58,.98,.58,1.73v1.07h-.26c.17-1.04,.62-1.87,1.34-2.48,.72-.62,1.62-.94,2.69-.97,.5-.02,.88,.11,1.13,.39s.39,.78,.4,1.51c0,.62-.13,1.11-.39,1.47-.26,.36-.75,.58-1.46,.66l-.62,.05c-.9,.09-1.57,.34-2,.77s-.65,1.05-.65,1.88v4.29c0,.75-.2,1.32-.58,1.73-.39,.41-.97,.61-1.73,.61Z"/></g></g></g></svg>