<?xml version="1.0" encoding="UTF-8"?><svg xmlns="http://www.w3.org/2000/svg" viewBox="0 0 101.79 101.06"><defs><style>.d{fill:#f8ce80;}.e{fill:#f2b430;}.f{fill:#f0b230;}.g{fill:#ce8525;}.h{fill:#403e0a;}.i{fill:#543511;}</style></defs><g id="a"/><g id="b"><g id="c"><rect class="i" x="0" y="0" width="101.79" height="101.06" rx="50.53" ry="50.53"/><g><path class="g" d="M52.28,72.34c.58,.9,1.51,1.47,2.08,2.42,1.6,2.65,.31,5.31-2.78,5.4-4.49,.14-8.74-.89-12.56-3.26-7.51-4.65-11.58-11.58-12.65-20.22-1.35-10.91,2.58-19.82,10.83-26.92,2.89-2.48,6.13-4.39,9.56-6.04,2.86-1.37,5.56-1.3,8.38,.04,4.96,2.36,9.42,5.38,13.04,9.54,6.81,7.82,8.94,16.82,6.55,26.87-1.78,7.47-5.98,13.22-12.64,17.1-.4,.23-.86,.37-1.29,.55,.08-2.31-1.1-4.66-2.93-6.27-.56-.49,.04-.65,.44-.7,1.74-.23,3.84-.91,5.42-1.64,5.5-2.54,8.2-6.29,9.63-12.22,1.46-6.07,.62-11.52-2.92-16.54-2.87-4.07-6.77-6.85-11.03-9.34-2.78-1.62-4.97-1.54-8.24-1.62-3.4-.08-5.89,.4-8.77,2.03-5.07,2.87-9.86,5.81-12.83,10.88-3.7,6.32-3.36,12.76,.06,19.16,3.38,6.35,8.21,8.82,15.31,9.17,2.17,.11,3.88-.03,5.99,.59,.2,.07,1.17,.96,1.37,1.03h0Z"/><path class="h" d="M71.36,32.19l-.24-.2,.24,.2Z"/><path class="g" d="M51.69,72.14c-2.11-.62-4.28-.69-6.45-.8-7.11-.35-13.77-3.33-17.16-9.69-2.02-6.71-2.21-13.94,1.49-20.26,2.97-5.07,7.17-8.88,12.24-11.75,2.88-1.63,5.93-2.82,9.33-2.74,3.27,.08,6.23,1.22,9,2.84,4.27,2.49,8.77,6.6,11.64,10.67,3.54,5.02,4.15,10.51,2.69,16.58-1.42,5.94-4.98,10.13-10.49,12.67-1.58,.73-3.25,1.25-4.99,1.48-.4,.05-1,.21-.44,.7,1.83,1.61,2.34,3.67,2.26,5.97-.1,.18-.21,.35-.32,.53-1.11,.07-2.07,.71-3.16,.83,.7-2.34-.16-4.12-2.07-5.46-.9-.63-1.86-1.18-2.97-1.38h0l-.6-.2Zm-16.59-33.92c-6.03,4.97-8.21,13.78-5.2,21,2.41,5.8,6.91,9.04,12.92,10.36,1.81,.4,3.64,.7,5.38-.29,1.77,.58,3.54,.81,5.28-.1,.89,.62,1.9,.83,2.96,.73,3.6-.32,7.01-1.32,9.89-3.54,8.42-6.48,9.19-19.39,1.66-26.91"/><path class="e" d="M48.19,69.28c-1.75,.99-3.57,.69-5.38,.29-6.01-1.32-10.5-4.57-12.92-10.36-3-7.21-.83-16.03,5.2-21,4.98-4.1,10.78-5.61,17.14-5.31,6.05,.28,11.4,2.21,15.75,6.55,7.53,7.52,6.75,20.44-1.66,26.91-2.89,2.22-6.29,3.23-9.89,3.54-1.06,.09-2.07-.12-2.96-.73-.8-1.08-.23-2.04,.32-2.96,.79-1.33,1.51-2.68,1.8-4.22,.53-2.78-.69-4.57-3.48-5.04-.83-.14-1.67-.14-2.5,.01-2.82,.51-4,2.23-3.46,5.04,.31,1.64,1.09,3.08,1.94,4.49,.54,.9,.86,1.83,.1,2.78Z"/><path class="d" d="M52.21,35.95c4.52,.13,9.66,1.53,13.93,5.45,4.58,4.21,5.67,11.84,2.45,17.14-1.51,2.48-3.58,4.21-6.2,5.35-.68,.3-1.36,.35-1.98-.16-.57-.46-.61-1.06-.49-1.73,.87-4.75-1.39-8.31-6.08-9.39-2.78-.64-5.54-.51-8.14,.78-2.88,1.42-4.4,4.41-4,7.68,.04,.3,.1,.6,.14,.89,.27,1.7-.79,2.56-2.42,1.93-3.07-1.2-5.3-3.35-6.74-6.29-3-6.13-1.07-13.55,4.53-17.54,4.02-2.87,8.24-4.12,15.01-4.11Z"/><path class="f" d="M60.8,77.82c.07,1.11-.7,2.53-1.29,3.47-1.88,.69-3.8,1.24-5.82,1.27,1.52-.79,2.84-1.72,3.56-3.38,1.1-.12,2.4-.97,3.56-1.36Z"/><path class="f" d="M71.3,32.21c2.03,2.96,3.96,5.99,5.07,9.43,3.81,11.85,2.18,22.75-5.99,32.37-2.91,3.42-6.59,5.84-10.88,7.28,.32-.98,1.05-1.83,.98-2.94,.11-.18,.21-.35,.32-.53,.43-.18,.89-.32,1.29-.55,6.66-3.89,10.87-9.63,12.64-17.1,2.39-10.05,.26-19.05-6.55-26.87-3.62-4.15-8.08-7.18-13.04-9.54-2.82-1.34-5.52-1.42-8.38-.04-3.43,1.65-6.67,3.55-9.56,6.04-8.26,7.1-12.18,16-10.83,26.92,1.07,8.64,5.14,15.57,12.65,20.22,3.83,2.37,8.07,3.39,12.56,3.26,3.1-.09,4.38-2.75,2.78-5.4-.57-.94-2.19-2.17-2.08-2.42,.18-.4,2.07,.75,2.97,1.38,1.91,1.34,2.76,3.12,2.07,5.46-.72,1.66-2.11,2.59-3.63,3.38-6.43,.83-12.24-.83-17.59-4.34-.17-.11-.33-.22-.5-.33-2.22-1.79-4.34-3.67-6.03-6-4.46-6.15-6.38-13.05-6.07-20.59,.39-9.51,4.56-17.27,11.23-23.83,3.49-3.43,7.47-6.17,11.93-8.21,2.88-1.32,5.63-1.29,8.5,.04,6.01,2.78,11.05,6.76,15.22,11.87,.23,.28,.49,.54,.73,.82l.24,.2-.06,.02Z"/></g></g></g></svg>