<svg width="35" height="40" viewBox="0 0 35 40" fill="none" xmlns="http://www.w3.org/2000/svg">
<path fill-rule="evenodd" clip-rule="evenodd" d="M17.8702 33.5262C17.8699 33.5257 17.8696 33.5253 17.8693 33.5248L17.8817 33.531C17.8782 33.5298 17.8744 33.5282 17.8702 33.5262ZM18.487 34.2342C18.2639 34.0128 18.0423 33.7929 17.8702 33.5262C17.8593 33.521 17.846 33.5134 17.8308 33.5035L17.8757 33.5185C18.5642 33.6426 19.1596 33.9837 19.7178 34.3745C20.9025 35.2056 21.4359 36.3096 21.0018 37.761C21.3236 37.7256 21.6271 37.6171 21.9311 37.5084C22.2658 37.3888 22.601 37.269 22.9618 37.2462C22.9807 37.2153 22.9996 37.1848 23.0183 37.1546C23.0664 37.0772 23.1135 37.0012 23.1576 36.9222C23.2399 36.8878 23.3239 36.8558 23.4081 36.8237C23.5955 36.7523 23.7835 36.6806 23.9539 36.5826C28.0848 34.1761 30.6899 30.6096 31.7939 25.9763C33.2763 19.7428 31.9552 14.1606 27.7313 9.31019C25.486 6.72995 22.7196 4.85679 19.6432 3.39299C17.8941 2.56186 16.2194 2.51844 14.4455 3.36818C12.318 4.3916 10.3084 5.57628 8.51588 7.1145C3.3988 11.5183 0.961215 17.0447 1.79855 23.8117C2.46222 29.1706 4.98665 33.469 9.64473 36.3531C12.0141 37.8231 14.6502 38.462 17.4351 38.3752C19.3517 38.3193 20.1518 36.6695 19.1594 35.0258C18.9751 34.7187 18.7302 34.4756 18.487 34.2342ZM3.98826 25.387C2.12131 20.9088 3.47346 15.4444 7.21357 12.3617L27.6136 13.1371C32.2841 17.8013 31.8065 25.8088 26.584 29.828C24.7977 31.205 22.6826 31.8252 20.4497 32.0237C19.7923 32.0857 19.1658 31.9555 18.6138 31.5709C17.5346 32.1354 16.4367 31.9927 15.3389 31.6329C14.2596 32.247 13.1246 32.0609 12.0019 31.8128C8.2742 30.9941 5.48307 28.9845 3.98826 25.387Z" fill="#CE8525"/>
<path d="M15.3391 31.6267C14.2537 32.2407 13.1248 32.0546 12.0022 31.8065C8.27448 30.9878 5.48956 28.972 3.98855 25.3807C2.12779 20.9087 3.47374 15.4381 7.21385 12.3555C10.3027 9.81243 13.9002 8.87585 17.845 9.06193C21.5975 9.2356 24.9158 10.4327 27.6139 13.1246C32.2844 17.7889 31.8006 25.8025 26.5843 29.8155C24.7918 31.1925 22.6829 31.8189 20.45 32.0112C19.7926 32.067 19.1661 31.9368 18.6141 31.5584C18.1179 30.8886 18.4714 30.2931 18.8126 29.7225C19.3026 28.8976 19.7491 28.0602 19.929 27.105C20.2577 25.3807 19.501 24.2705 17.7705 23.979C17.2557 23.8921 16.7347 23.8921 16.2199 23.9852C14.4708 24.3015 13.7389 25.3683 14.0738 27.1112C14.2661 28.1284 14.7499 29.0216 15.2771 29.8962C15.6121 30.4544 15.8105 31.0312 15.3391 31.6205V31.6267Z" fill="#F2B430"/>
<path d="M17.826 10.96C20.6295 11.0406 23.8176 11.909 26.4661 14.3404C29.3068 16.9516 29.9829 21.6841 27.9857 24.9715C27.0491 26.5097 25.7652 27.5827 24.1401 28.2898C23.7184 28.4759 23.2966 28.5069 22.912 28.1906C22.5585 27.9053 22.5337 27.5331 22.6081 27.1175C23.1477 24.1714 21.746 21.9633 18.837 21.2934C17.1127 20.8964 15.4008 20.9771 13.7881 21.7772C12.0018 22.6579 11.059 24.5125 11.3071 26.5407C11.332 26.7268 11.3692 26.9129 11.394 27.0927C11.5614 28.1472 10.904 28.6806 9.89297 28.2898C7.9888 27.5455 6.60564 26.212 5.71248 24.3884C3.85172 20.5863 5.04881 15.984 8.52222 13.5092C11.0156 11.7291 13.6331 10.9538 17.8322 10.96H17.826Z" fill="#F8CE80"/>
<path fill-rule="evenodd" clip-rule="evenodd" d="M32.8112 14.4829C32.1227 12.3492 30.9256 10.4698 29.6665 8.63389H29.6603L29.6975 8.62148L29.5487 8.49743C29.4828 8.42061 29.4146 8.34622 29.3465 8.27211C29.2608 8.17867 29.1755 8.08568 29.0959 7.98883C26.5094 4.81934 23.3834 2.35074 19.6557 0.626446C17.8756 -0.198488 16.1699 -0.217096 14.3835 0.601636C11.6172 1.86695 9.14862 3.56644 6.98394 5.6939C2.84687 9.76275 0.266621 14.5759 0.01852 20.4745C-0.173758 25.1512 1.01712 29.4309 3.77724 33.2455C4.82547 34.6906 6.1404 35.8567 7.51736 36.967C7.57008 37.0011 7.62125 37.0352 7.67242 37.0693C7.72359 37.1034 7.77476 37.1375 7.82748 37.1716C11.1458 39.3487 14.7495 40.3783 18.7377 39.8635C19.1034 39.6735 19.457 39.4703 19.7789 39.2327C19.4629 39.4729 19.113 39.678 18.7441 39.8697C19.997 39.8511 21.1879 39.5099 22.354 39.082C22.3562 39.0785 22.3584 39.075 22.3606 39.0714C25.0159 38.1777 27.2939 36.6782 29.0959 34.5604C34.1633 28.5936 35.1744 21.8328 32.8112 14.4829ZM23.1475 36.934C23.1496 36.9305 23.1518 36.927 23.1539 36.9235C23.2374 36.8886 23.3227 36.8561 23.4081 36.8235C23.5956 36.7521 23.7836 36.6804 23.954 36.5824C28.0849 34.1696 30.6961 30.6094 31.794 25.9761C33.2764 19.7426 31.9553 14.1603 27.7313 9.30996C25.486 6.73592 22.7197 4.85656 19.6433 3.39277C17.8942 2.56163 16.2195 2.51201 14.4456 3.36796C12.3181 4.39137 10.3085 5.56985 8.51596 7.11427C3.39269 11.5181 0.955099 17.0383 1.79244 23.8114C2.45611 29.1704 4.98053 33.4688 9.63862 36.3529C12.0142 37.8229 14.644 38.4556 17.429 38.3749C19.3518 38.3191 20.1457 36.6692 19.1533 35.0256C18.9742 34.7303 18.628 34.3888 18.3388 34.1035C18.0571 33.8256 17.8295 33.6011 17.8631 33.5246C17.9748 33.2765 19.1471 33.9898 19.7053 34.3805C20.89 35.2117 21.5 36.5 20.9892 37.7671C20.989 37.7677 20.9887 37.7683 20.9884 37.7689C21.4002 37.7148 21.8552 37.5026 22.308 37.2914C22.5925 37.1587 22.8761 37.0264 23.1475 36.934Z" fill="#F0B230"/>
</svg>
